<?xml version="1.0" standalone="no"?>
<!DOCTYPE svg PUBLIC "-//W3C//DTD SVG 20010904//EN"
 "http://www.w3.org/TR/2001/REC-SVG-20010904/DTD/svg10.dtd">
<svg version="1.0" xmlns="http://www.w3.org/2000/svg"
 width="1024.000000pt" height="1024.000000pt" viewBox="0 0 1024.000000 1024.000000"
 preserveAspectRatio="xMidYMid meet">
<metadata>
Created by potrace 1.14, written by Peter Selinger 2001-2017
</metadata>
<g transform="translate(0.000000,1024.000000) scale(0.100000,-0.100000)"
fill="#000000" stroke="none">
<path d="M2075 10233 c-133 -16 -261 -39 -355 -63 -394 -101 -778 -322 -1064
-615 -134 -136 -276 -324 -356 -470 -18 -33 -36 -65 -41 -71 -21 -26 -112
-245 -148 -357 -42 -129 -83 -315 -100 -452 -13 -109 -13 -6061 0 -6170 74
-600 360 -1127 823 -1513 101 -84 274 -200 381 -257 216 -113 505 -209 720
-239 22 -3 69 -10 105 -15 72 -11 6151 -10 6185 0 11 4 45 10 75 14 148 19
385 87 555 160 551 236 1004 700 1223 1255 64 161 103 309 149 555 11 64 14
6095 2 6200 -77 684 -451 1294 -1024 1671 -262 173 -551 286 -880 347 l-120
22 -3050 1 c-1677 1 -3063 -1 -3080 -3z"/>
</g>
</svg>
